PathFileType	4	(X/Y/Z)	c:/Users/goper/Files/vsCode/490R/osim_files/C08/C08_SSWS_04.trc
DataRate	CameraRate	NumFrames	NumMarkers	Units                	OrigDataRate	OrigDataStartFrame	OrigNumFrames
250.00	250.00	6	36	mm	250.0	3289	4384
                Frame#	Time	LPSIS			LASIS			LTH1			LTH2			LTH3			LTH4			LLFE			LMFE			LSH1			LSH2			LSH3			LSH4			LLMAL			LMMAL			LCAL			LMTP5			LTOE			LMTP1			RPSIS			RASIS			RTH1			RTH2			RTH3			RTH4			RLFE			RMFE			RSH1			RSH2			RSH3			RSH4			RLMAL			RMMAL			RCAL			RMTP1			RTOE			RMTP5		
		X1	Y1	Z1	X2	Y2	Z2	X3	Y3	Z3	X4	Y4	Z4	X5	Y5	Z5	X6	Y6	Z6	X7	Y7	Z7	X8	Y8	Z8	X9	Y9	Z9	X10	Y10	Z10	X11	Y11	Z11	X12	Y12	Z12	X13	Y13	Z13	X14	Y14	Z14	X15	Y15	Z15	X16	Y16	Z16	X17	Y17	Z17	X18	Y18	Z18	X19	Y19	Z19	X20	Y20	Z20	X21	Y21	Z21	X22	Y22	Z22	X23	Y23	Z23	X24	Y24	Z24	X25	Y25	Z25	X26	Y26	Z26	X27	Y27	Z27	X28	Y28	Z28	X29	Y29	Z29	X30	Y30	Z30	X31	Y31	Z31	X32	Y32	Z32	X33	Y33	Z33	X34	Y34	Z34	X35	Y35	Z35	X36	Y36	Z36

3289	13.15200	-52.55303	1054.08545	241.25949	-255.62526	1020.74072	328.47250	-239.28729	746.26862	414.21478	-266.83447	672.21741	404.75266	-291.73529	601.89612	402.70392	-340.56277	702.57404	393.88443	-300.89801	554.86969	395.28018	-333.67117	546.57996	268.38565	-208.90849	490.93924	394.77158	-186.12218	449.95236	396.60229	-259.04532	455.74957	405.07425	-230.26189	421.39462	400.27988	-29.99479	227.43886	342.66476	-63.58199	214.93486	259.93692	26.64037	245.78638	278.87793	-75.64066	108.82254	383.37604	-142.89366	91.45098	332.57907	-111.07527	89.03432	277.01208	-54.87388	1053.64563	181.15010	-250.76414	1021.21899	91.82710	-191.23717	751.27759	40.09642	-193.82043	673.96814	60.21969	-193.08884	595.97211	69.62498	-266.52402	681.35883	89.05223	-196.07178	524.55493	92.20916	0.00000	0.00000	0.00000	-137.09644	442.52817	74.74767	-140.59386	397.90326	72.07699	-197.91525	440.02295	86.07095	-193.39317	395.49176	81.98973	-112.93653	100.46191	140.16972	-142.29712	106.46264	228.77065	-54.31264	79.14847	210.81111	-269.12231	44.21535	218.14842	-286.99704	61.71732	164.22267	-234.65645	43.84005	104.85646
3290	13.15600	-56.98877	1054.35742	241.36118	-260.16220	1021.23151	327.73676	-245.44397	747.43152	414.31619	-273.82135	673.38495	404.66571	-299.24280	603.17633	402.27762	-347.53833	704.37256	393.17892	-308.59268	556.14441	394.73401	-340.52243	548.15424	267.69135	-217.05594	490.49487	394.24045	-194.98149	449.07950	396.24875	-267.82193	456.14444	404.45645	-239.92473	421.21280	399.49203	-42.44075	223.93372	342.77115	-76.00870	211.98932	260.00204	14.75209	241.06554	279.13602	-90.51934	106.34560	383.60196	-157.88831	90.23353	332.60098	-125.49900	87.49268	276.55945	-59.20069	1053.89868	181.15726	-254.72742	1021.15216	91.63734	-193.93666	751.37250	39.97356	-196.07884	674.01636	60.12635	-194.81248	596.00696	69.63274	-268.16806	680.58356	88.90054	-197.25026	524.58618	92.08971	0.00000	0.00000	0.00000	-137.93336	442.76718	74.77045	-141.26195	398.14676	72.10184	-198.72241	440.08160	85.93842	-194.08997	395.58307	81.86350	-113.17159	100.54554	140.31900	-142.50018	106.63555	228.79480	-54.41113	79.34421	210.85196	-269.17313	44.19055	218.13907	-287.08743	61.59458	164.19769	-234.68477	43.78961	104.82340
3291	13.16000	-61.43274	1054.66663	241.46136	-264.83823	1021.66968	327.02316	-251.71219	748.48438	414.35727	-280.72028	674.46124	404.43530	-306.50684	604.45221	401.83273	-354.37482	706.11951	392.80939	-316.43460	557.75488	394.26852	-347.19815	549.59760	267.00983	-225.13185	490.01477	393.72192	-203.72060	448.18854	395.78845	-276.55292	456.56393	403.81479	-248.71889	420.96530	399.21945	-55.00106	220.33733	342.84119	-88.61389	208.94695	260.02756	2.69827	236.20348	279.32898	-105.55019	103.88322	383.79437	-173.18832	89.14460	332.64789	-140.25191	85.86091	276.26675	-63.55515	1054.13623	181.19608	-258.79233	1021.17938	91.46442	-196.58348	751.45538	39.91402	-198.28165	674.11108	60.02246	-196.43968	596.17487	69.50680	-269.85913	679.83344	88.76419	-198.44112	524.61414	91.98479	0.00000	0.00000	0.00000	-138.81281	443.00278	74.80616	-141.93782	398.38458	72.13505	-199.57133	440.13623	85.83562	-194.79756	395.65146	81.76440	-113.42858	100.71724	140.37357	-142.71219	106.80355	228.81841	-54.56141	79.52465	210.89146	-269.20819	44.15899	218.09358	-287.19339	61.48670	164.13759	-234.70691	43.74372	104.80744
3292	13.16400	-65.81424	1054.95239	241.58850	-269.55292	1022.05042	326.32297	-258.27518	749.38770	414.30423	-287.58517	675.50726	404.25790	-313.78656	605.63983	401.32834	-360.91434	707.59882	391.89050	-323.57535	558.65552	393.58096	-353.76492	550.98706	266.29132	-233.15807	489.46194	393.15802	-212.31505	447.36127	395.68613	-285.13702	456.94321	403.21494	-257.84161	420.72299	398.64825	-67.78876	216.59351	343.31265	-101.30743	205.83411	260.09854	-9.47642	231.22705	279.57309	-120.69209	101.35153	383.98709	-188.47461	87.98096	332.69431	-155.30568	84.15459	276.11987	-67.86342	1054.37964	181.27074	-262.87296	1021.07343	91.24454	-199.37926	751.54901	39.78114	-200.48505	674.15985	59.92741	-198.11209	596.28137	69.43335	-272.79572	680.09308	88.98663	-199.63484	524.58868	91.87373	0.00000	0.00000	0.00000	-139.65240	443.28268	74.84766	-142.70068	398.57837	72.13210	-200.27696	440.06998	86.05590	-195.53403	395.70459	81.70361	-113.64598	100.89627	140.44920	-142.93799	106.97835	228.85815	-54.68838	79.73568	210.94241	-269.30609	44.13962	218.05566	-287.27512	61.38233	164.10239	-234.73814	43.69536	104.78755
3293	13.16800	-70.19997	1055.22192	241.71797	-274.12280	1022.28503	325.68683	-264.67490	750.29053	414.27667	-294.36124	676.50201	404.04898	-320.87170	606.82880	400.76929	-367.35217	708.98035	390.95309	-331.19437	560.17151	393.00662	-360.07285	552.25287	265.60016	-240.93820	487.59616	395.49408	-220.56998	445.87131	395.12656	-293.55243	457.28772	402.80804	-266.85959	420.40036	398.04922	-80.51981	212.86742	343.35519	-114.56838	202.56418	260.37897	-21.67954	226.17743	279.67639	-136.00655	98.90437	384.19485	-203.86641	86.84359	332.76962	-170.63205	82.38936	276.10471	-72.12505	1054.62329	181.36322	-266.90106	1020.96368	90.99827	-202.02522	751.61462	39.74142	-202.67719	674.18555	59.84463	-199.79768	596.36841	69.40365	-274.96890	679.68182	88.92822	-200.87791	524.59644	91.77916	0.00000	0.00000	0.00000	-140.61180	443.38376	74.85687	-143.31500	398.84232	72.21181	-201.21658	440.16403	85.97101	-196.26675	395.77539	81.60263	-113.84845	101.07063	140.47920	-143.10876	107.13348	228.87881	-54.83804	79.98335	210.97897	-269.33676	44.10029	218.00816	-287.37582	61.28830	164.04056	-234.78415	43.65219	104.77521
3294	13.17200	-74.61464	1055.48230	241.90602	-278.64801	1022.53406	325.11777	-271.04913	751.10602	414.21753	-301.00278	677.45074	403.78604	-327.83923	607.91565	400.16992	-373.69257	710.35828	389.98907	-338.32635	561.32336	392.36081	-365.46451	553.67700	264.94879	-248.77655	487.19492	394.89053	-229.54854	445.23325	394.35880	-301.96552	457.54633	402.22894	-275.81668	420.02948	397.53418	-93.33739	209.10252	343.35968	-127.04829	199.41782	260.23270	-34.02611	221.01624	279.81915	-151.39137	96.42361	384.41782	-219.34917	85.76904	332.91827	-186.20267	80.58079	276.20703	-76.42261	1054.80432	181.49271	-270.89746	1020.79559	90.79008	-204.64682	751.65009	39.66477	-204.83171	674.26575	59.76209	-201.42844	596.46759	69.39977	-277.19730	679.28998	88.85217	-202.06769	524.62238	91.68127	0.00000	0.00000	0.00000	-141.41566	443.72449	74.94283	-144.06396	399.08359	72.25230	-202.19293	440.33826	85.56801	-197.01137	395.84164	81.52975	-113.99471	101.25774	140.53804	-143.28856	107.27447	228.91599	-54.94513	80.21756	211.02545	-269.39822	44.09267	217.94789	-287.45959	61.20379	163.98824	-234.81723	43.61922	104.74297
